<svg viewBox="0 0 200 200" fill="none" xmlns="http://www.w3.org/2000/svg">
  <defs>
    <linearGradient id="blue" x1="0" y1="0" x2="200" y2="200" gradientUnits="userSpaceOnUse">
      <stop offset="0%" stop-color="#38BDF8"/>
      <stop offset="50%" stop-color="#3B82F6"/>
      <stop offset="100%" stop-color="#2563EB"/>
    </linearGradient>
    <linearGradient id="blue-light" x1="200" y1="0" x2="0" y2="200" gradientUnits="userSpaceOnUse">
      <stop offset="0%" stop-color="#93C5FD"/>
      <stop offset="100%" stop-color="#3B82F6"/>
    </linearGradient>
  </defs>
  <rect x="4" y="4" width="192" height="192" rx="32" stroke="url(#blue)" stroke-width="5" fill="none"/>
  <rect x="10" y="10" width="180" height="180" rx="27" stroke="url(#blue-light)" stroke-width="3" fill="none" opacity="0.4"/>
  <!-- wave accents top/bottom -->
  <path d="M40 5 Q60 0 80 5 Q100 10 120 5 Q140 0 160 5" stroke="#60A5FA" stroke-width="2" fill="none" opacity="0.6"/>
  <path d="M40 195 Q60 200 80 195 Q100 190 120 195 Q140 200 160 195" stroke="#60A5FA" stroke-width="2" fill="none" opacity="0.6"/>
  <!-- side accents -->
  <path d="M5 40 Q0 60 5 80 Q10 100 5 120 Q0 140 5 160" stroke="#60A5FA" stroke-width="2" fill="none" opacity="0.6"/>
  <path d="M195 40 Q200 60 195 80 Q190 100 195 120 Q200 140 195 160" stroke="#60A5FA" stroke-width="2" fill="none" opacity="0.6"/>
  <!-- corner circles -->
  <circle cx="16" cy="16" r="4" fill="#60A5FA" opacity="0.7"/>
  <circle cx="184" cy="16" r="4" fill="#60A5FA" opacity="0.7"/>
  <circle cx="16" cy="184" r="4" fill="#60A5FA" opacity="0.7"/>
  <circle cx="184" cy="184" r="4" fill="#60A5FA" opacity="0.7"/>
</svg>
