<svg preserveAspectRatio="none" width="100%" height="100%" overflow="visible" style="display: block;" viewBox="0 0 48 48" fill="none" xmlns="http://www.w3.org/2000/svg">
<g id="download">
<mask id="mask0_148_7" style="mask-type:alpha" maskUnits="userSpaceOnUse" x="0" y="0" width="48" height="48">
<path id="Bounding box" d="M0 0.999999C0 0.447714 0.447715 0 1 0H47C47.5523 0 48 0.447715 48 1V47C48 47.5523 47.5523 48 47 48H0.999999C0.447714 48 0 47.5523 0 47V0.999999Z" fill="var(--fill-0, #D9D9D9)"/>
</mask>
<g mask="url(#mask0_148_7)">
<path id="download_2" d="M24.7071 30.8699C24.3166 31.2604 23.6834 31.2604 23.2929 30.8699L16.1586 23.7356C15.772 23.349 15.7675 22.7236 16.1486 22.3315L16.8625 21.5969C17.2513 21.1969 17.8923 21.1923 18.2868 21.5868L22.5 25.8V10C22.5 9.44772 22.9477 9 23.5 9H24.5C25.0523 9 25.5 9.44772 25.5 10V25.8L29.7132 21.5868C30.1077 21.1923 30.7487 21.1969 31.1375 21.5969L31.8514 22.3315C32.2325 22.7236 32.228 23.349 31.8414 23.7356L24.7071 30.8699ZM12.6155 39C11.6052 39 10.75 38.65 10.05 37.95C9.35 37.25 9 36.3948 9 35.3845V29.9615H12V35.3845C12 35.5385 12.0642 35.6795 12.1925 35.8075C12.3205 35.9358 12.4615 36 12.6155 36H35.3845C35.5385 36 35.6795 35.9358 35.8075 35.8075C35.9358 35.6795 36 35.5385 36 35.3845V30.9615C36 30.4092 36.4477 29.9615 37 29.9615H38C38.5523 29.9615 39 30.4092 39 30.9615V35.3845C39 36.3948 38.65 37.25 37.95 37.95C37.25 38.65 36.3948 39 35.3845 39H12.6155Z" fill="var(--fill-0, #467BEF)"/>
</g>
</g>
</svg>
