<svg preserveAspectRatio="none" width="100%" height="100%" overflow="visible" style="display: block;" viewBox="0 0 257 63" fill="none" xmlns="http://www.w3.org/2000/svg">
<g id="Group 16">
<path id="Vector 4" d="M111.461 2.58992C47.765 3.69606 17.3071 13.1905 10.0401 17.7994C1.98343 23.3301 -5.31527 46.2826 5.30079 52.3664C18.5709 59.9712 102.457 64.1192 158.381 62.7365C214.305 61.3539 269.281 64.8106 254.589 27.4782C239.897 -9.85422 191.082 1.20724 111.461 2.58992Z" fill="var(--fill-0, #20A827)"/>
<path id="Vector 5" d="M113.393 5.92569C51.7511 6.90421 22.2756 15.3031 15.2431 19.3802C7.44633 24.2728 0.383069 44.577 10.6567 49.9588C23.4987 56.686 104.679 60.3555 158.798 59.1323C212.918 57.9092 266.121 60.967 251.903 27.9422C237.685 -5.08258 190.445 4.70255 113.393 5.92569Z" fill="var(--fill-0, #36B13C)"/>
</g>
</svg>
