<svg preserveAspectRatio="none" width="100%" height="100%" overflow="visible" style="display: block;" viewBox="0 0 42 42" fill="none" xmlns="http://www.w3.org/2000/svg">
<g id="Group 10">
<circle id="Ellipse 2" cx="21" cy="21" r="21" fill="var(--fill-0, white)"/>
<circle id="Ellipse 3" cx="21" cy="21" r="18" fill="var(--fill-0, #C6E6FF)"/>
<g id="function">
<mask id="mask0_89_90" style="mask-type:alpha" maskUnits="userSpaceOnUse" x="8" y="8" width="24" height="24">
<rect id="Bounding box" x="8" y="8" width="24" height="24" fill="var(--fill-0, #D9D9D9)"/>
</mask>
<g mask="url(#mask0_89_90)">
<path id="function_2" d="M18 519.198V514.763H19.55L22.175 508.109L19.55 501.456H17.9L16.3 520.529C16.1667 522.192 15.8583 523.495 15.375 524.438C14.8917 525.38 14.275 525.852 13.525 525.852C12.775 525.852 12.1667 525.408 11.7 524.521C11.2333 523.634 11 522.451 11 520.972C11 519.79 11.1417 518.838 11.425 518.117C11.7083 517.396 12.0667 517.036 12.5 517.036C12.9167 517.036 13.2708 517.35 13.5625 517.978C13.8542 518.607 14 519.365 14 520.252C14 520.436 13.9958 520.603 13.9875 520.751C13.9792 520.899 13.9667 521.065 13.95 521.25C14.0333 521.213 14.1042 521.111 14.1625 520.945C14.2208 520.778 14.2667 520.547 14.3 520.252L15.85 501.456H13V497.021H16.225L16.75 490.7C16.8667 489.295 17.1792 488.149 17.6875 487.262C18.1958 486.375 18.8 485.932 19.5 485.932C20.2333 485.932 20.8333 486.412 21.3 487.373C21.7667 488.334 22 489.536 22 490.977C22 492.086 21.8583 493.001 21.575 493.722C21.2917 494.442 20.9333 494.803 20.5 494.803C20.0833 494.803 19.7292 494.489 19.4375 493.86C19.1458 493.232 19 492.456 19 491.532C19 491.347 19.0042 491.18 19.0125 491.033C19.0208 490.885 19.0333 490.718 19.05 490.534C18.95 490.607 18.875 490.718 18.825 490.866C18.775 491.014 18.7333 491.236 18.7 491.532L18.275 497.021H23V501.456H22.2L23.5 504.727L24.8 501.456H24V497.021H29V501.456H27.45L24.825 508.109L27.45 514.763H29V519.198H24V514.763H24.8L23.5 511.436L22.2 514.763H23V519.198H18Z" fill="var(--fill-0, #81C7FD)"/>
</g>
</g>
</g>
</svg>
