<svg preserveAspectRatio="none" width="100%" height="100%" overflow="visible" style="display: block;" viewBox="0 0 42 42" fill="none" xmlns="http://www.w3.org/2000/svg">
<g id="Group 11">
<circle id="Ellipse 2" cx="21" cy="21" r="21" fill="var(--fill-0, white)"/>
<circle id="Ellipse 3" cx="21" cy="21" r="18" fill="var(--fill-0, #C6E6FF)"/>
<g id="function">
<mask id="mask0_89_57" style="mask-type:alpha" maskUnits="userSpaceOnUse" x="8" y="8" width="24" height="24">
<rect id="Bounding box" x="8" y="8" width="24" height="24" fill="var(--fill-0, #D9D9D9)"/>
</mask>
<g mask="url(#mask0_89_57)">
<path id="function_2" d="M18 625.145V620.709H19.55L22.175 614.056L19.55 607.402H17.9L16.3 626.475C16.1667 628.139 15.8583 629.441 15.375 630.384C14.8917 631.327 14.275 631.798 13.525 631.798C12.775 631.798 12.1667 631.354 11.7 630.467C11.2333 629.58 11 628.397 11 626.919C11 625.736 11.1417 624.784 11.425 624.063C11.7083 623.343 12.0667 622.982 12.5 622.982C12.9167 622.982 13.2708 623.296 13.5625 623.925C13.8542 624.553 14 625.311 14 626.198C14 626.383 13.9958 626.549 13.9875 626.697C13.9792 626.845 13.9667 627.011 13.95 627.196C14.0333 627.159 14.1042 627.057 14.1625 626.891C14.2208 626.725 14.2667 626.494 14.3 626.198L15.85 607.402H13V602.967H16.225L16.75 596.646C16.8667 595.242 17.1792 594.096 17.6875 593.209C18.1958 592.321 18.8 591.878 19.5 591.878C20.2333 591.878 20.8333 592.358 21.3 593.319C21.7667 594.281 22 595.482 22 596.923C22 598.032 21.8583 598.947 21.575 599.668C21.2917 600.389 20.9333 600.749 20.5 600.749C20.0833 600.749 19.7292 600.435 19.4375 599.806C19.1458 599.178 19 598.402 19 597.478C19 597.293 19.0042 597.127 19.0125 596.979C19.0208 596.831 19.0333 596.665 19.05 596.48C18.95 596.554 18.875 596.665 18.825 596.812C18.775 596.96 18.7333 597.182 18.7 597.478L18.275 602.967H23V607.402H22.2L23.5 610.674L24.8 607.402H24V602.967H29V607.402H27.45L24.825 614.056L27.45 620.709H29V625.145H24V620.709H24.8L23.5 617.382L22.2 620.709H23V625.145H18Z" fill="var(--fill-0, #81C7FD)"/>
</g>
</g>
</g>
</svg>
