<svg preserveAspectRatio="none" width="100%" height="100%" overflow="visible" style="display: block;" viewBox="0 0 42 42" fill="none" xmlns="http://www.w3.org/2000/svg">
<g id="Group 12">
<circle id="Ellipse 2" cx="21" cy="21" r="21" fill="var(--fill-0, white)"/>
<circle id="Ellipse 3" cx="21" cy="21" r="18" fill="var(--fill-0, #C6E6FF)"/>
<g id="function">
<mask id="mask0_89_97" style="mask-type:alpha" maskUnits="userSpaceOnUse" x="8" y="8" width="24" height="24">
<rect id="Bounding box" x="8" y="8" width="24" height="24" fill="var(--fill-0, #D9D9D9)"/>
</mask>
<g mask="url(#mask0_89_97)">
<path id="function_2" d="M18 566.691V562.256H19.55L22.175 555.603L19.55 548.949H17.9L16.3 568.022C16.1667 569.685 15.8583 570.988 15.375 571.931C14.8917 572.873 14.275 573.345 13.525 573.345C12.775 573.345 12.1667 572.901 11.7 572.014C11.2333 571.127 11 569.944 11 568.466C11 567.283 11.1417 566.331 11.425 565.61C11.7083 564.889 12.0667 564.529 12.5 564.529C12.9167 564.529 13.2708 564.843 13.5625 565.472C13.8542 566.1 14 566.858 14 567.745C14 567.93 13.9958 568.096 13.9875 568.244C13.9792 568.392 13.9667 568.558 13.95 568.743C14.0333 568.706 14.1042 568.604 14.1625 568.438C14.2208 568.272 14.2667 568.041 14.3 567.745L15.85 548.949H13V544.514H16.225L16.75 538.193C16.8667 536.788 17.1792 535.643 17.6875 534.755C18.1958 533.868 18.8 533.425 19.5 533.425C20.2333 533.425 20.8333 533.905 21.3 534.866C21.7667 535.827 22 537.029 22 538.47C22 539.579 21.8583 540.494 21.575 541.215C21.2917 541.936 20.9333 542.296 20.5 542.296C20.0833 542.296 19.7292 541.982 19.4375 541.353C19.1458 540.725 19 539.949 19 539.025C19 538.84 19.0042 538.674 19.0125 538.526C19.0208 538.378 19.0333 538.211 19.05 538.027C18.95 538.101 18.875 538.211 18.825 538.359C18.775 538.507 18.7333 538.729 18.7 539.025L18.275 544.514H23V548.949H22.2L23.5 552.22L24.8 548.949H24V544.514H29V548.949H27.45L24.825 555.603L27.45 562.256H29V566.691H24V562.256H24.8L23.5 558.929L22.2 562.256H23V566.691H18Z" fill="var(--fill-0, #81C7FD)"/>
</g>
</g>
</g>
</svg>
