<svg preserveAspectRatio="none" width="100%" height="100%" overflow="visible" style="display: block;" viewBox="0 0 42 42" fill="none" xmlns="http://www.w3.org/2000/svg">
<g id="Group 5">
<circle id="Ellipse 2" cx="21" cy="21" r="21" fill="var(--fill-0, white)"/>
<circle id="Ellipse 3" cx="21" cy="21" r="18" fill="var(--fill-0, #1F7BDE)"/>
<g id="function">
<mask id="mask0_89_20" style="mask-type:alpha" maskUnits="userSpaceOnUse" x="8" y="8" width="24" height="24">
<rect id="Bounding box" x="8" y="8" width="24" height="24" fill="var(--fill-0, #D9D9D9)"/>
</mask>
<g mask="url(#mask0_89_20)">
<path id="function_2" d="M18 716.478V712.042H19.55L22.175 705.389L19.55 698.735H17.9L16.3 717.808C16.1667 719.472 15.8583 720.774 15.375 721.717C14.8917 722.66 14.275 723.131 13.525 723.131C12.775 723.131 12.1667 722.687 11.7 721.8C11.2333 720.913 11 719.73 11 718.252C11 717.069 11.1417 716.117 11.425 715.396C11.7083 714.676 12.0667 714.315 12.5 714.315C12.9167 714.315 13.2708 714.629 13.5625 715.258C13.8542 715.886 14 716.644 14 717.531C14 717.716 13.9958 717.882 13.9875 718.03C13.9792 718.178 13.9667 718.344 13.95 718.529C14.0333 718.492 14.1042 718.39 14.1625 718.224C14.2208 718.058 14.2667 717.827 14.3 717.531L15.85 698.735H13V694.3H16.225L16.75 687.979C16.8667 686.575 17.1792 685.429 17.6875 684.542C18.1958 683.654 18.8 683.211 19.5 683.211C20.2333 683.211 20.8333 683.691 21.3 684.652C21.7667 685.614 22 686.815 22 688.256C22 689.365 21.8583 690.28 21.575 691.001C21.2917 691.722 20.9333 692.082 20.5 692.082C20.0833 692.082 19.7292 691.768 19.4375 691.139C19.1458 690.511 19 689.735 19 688.811C19 688.626 19.0042 688.46 19.0125 688.312C19.0208 688.164 19.0333 687.998 19.05 687.813C18.95 687.887 18.875 687.998 18.825 688.145C18.775 688.293 18.7333 688.515 18.7 688.811L18.275 694.3H23V698.735H22.2L23.5 702.007L24.8 698.735H24V694.3H29V698.735H27.45L24.825 705.389L27.45 712.042H29V716.478H24V712.042H24.8L23.5 708.715L22.2 712.042H23V716.478H18Z" fill="var(--fill-0, white)"/>
</g>
</g>
</g>
</svg>
