<svg preserveAspectRatio="none" width="100%" height="100%" overflow="visible" style="display: block;" viewBox="0 0 42 42" fill="none" xmlns="http://www.w3.org/2000/svg">
<g id="Group 6">
<circle id="Ellipse 2" cx="21" cy="21" r="21" fill="var(--fill-0, white)"/>
<circle id="Ellipse 3" cx="21" cy="21" r="18" fill="var(--fill-0, #1F7BDE)"/>
<g id="function">
<mask id="mask0_89_36" style="mask-type:alpha" maskUnits="userSpaceOnUse" x="8" y="8" width="24" height="24">
<rect id="Bounding box" x="8" y="8" width="24" height="24" fill="var(--fill-0, #D9D9D9)"/>
</mask>
<g mask="url(#mask0_89_36)">
<path id="function_2" d="M18 668.984V664.549H19.55L22.175 657.896L19.55 651.242H17.9L16.3 670.315C16.1667 671.978 15.8583 673.281 15.375 674.224C14.8917 675.166 14.275 675.638 13.525 675.638C12.775 675.638 12.1667 675.194 11.7 674.307C11.2333 673.42 11 672.237 11 670.759C11 669.576 11.1417 668.624 11.425 667.903C11.7083 667.182 12.0667 666.822 12.5 666.822C12.9167 666.822 13.2708 667.136 13.5625 667.765C13.8542 668.393 14 669.151 14 670.038C14 670.223 13.9958 670.389 13.9875 670.537C13.9792 670.685 13.9667 670.851 13.95 671.036C14.0333 670.999 14.1042 670.897 14.1625 670.731C14.2208 670.565 14.2667 670.334 14.3 670.038L15.85 651.242H13V646.807H16.225L16.75 640.486C16.8667 639.081 17.1792 637.936 17.6875 637.048C18.1958 636.161 18.8 635.718 19.5 635.718C20.2333 635.718 20.8333 636.198 21.3 637.159C21.7667 638.12 22 639.322 22 640.763C22 641.872 21.8583 642.787 21.575 643.508C21.2917 644.228 20.9333 644.589 20.5 644.589C20.0833 644.589 19.7292 644.275 19.4375 643.646C19.1458 643.018 19 642.242 19 641.318C19 641.133 19.0042 640.967 19.0125 640.819C19.0208 640.671 19.0333 640.504 19.05 640.32C18.95 640.394 18.875 640.504 18.825 640.652C18.775 640.8 18.7333 641.022 18.7 641.318L18.275 646.807H23V651.242H22.2L23.5 654.513L24.8 651.242H24V646.807H29V651.242H27.45L24.825 657.896L27.45 664.549H29V668.984H24V664.549H24.8L23.5 661.222L22.2 664.549H23V668.984H18Z" fill="var(--fill-0, white)"/>
</g>
</g>
</g>
</svg>
