<svg preserveAspectRatio="none" width="100%" height="100%" overflow="visible" style="display: block;" viewBox="0 0 42 42" fill="none" xmlns="http://www.w3.org/2000/svg">
<g id="Group 7">
<circle id="Ellipse 2" cx="21" cy="21" r="21" fill="var(--fill-0, white)"/>
<circle id="Ellipse 3" cx="21" cy="21" r="18" fill="var(--fill-0, #1F7BDE)"/>
<g id="function">
<mask id="mask0_89_29" style="mask-type:alpha" maskUnits="userSpaceOnUse" x="8" y="8" width="24" height="24">
<rect id="Bounding box" x="8" y="8" width="24" height="24" fill="var(--fill-0, #D9D9D9)"/>
</mask>
<g mask="url(#mask0_89_29)">
<path id="function_2" d="M18 541.118V536.683H19.55L22.175 530.029L19.55 523.376H17.9L16.3 542.449C16.1667 544.112 15.8583 545.415 15.375 546.358C14.8917 547.3 14.275 547.771 13.525 547.771C12.775 547.771 12.1667 547.328 11.7 546.441C11.2333 545.554 11 544.371 11 542.892C11 541.71 11.1417 540.758 11.425 540.037C11.7083 539.316 12.0667 538.956 12.5 538.956C12.9167 538.956 13.2708 539.27 13.5625 539.898C13.8542 540.527 14 541.284 14 542.172C14 542.356 13.9958 542.523 13.9875 542.671C13.9792 542.818 13.9667 542.985 13.95 543.17C14.0333 543.133 14.1042 543.031 14.1625 542.865C14.2208 542.698 14.2667 542.467 14.3 542.172L15.85 523.376H13V518.94H16.225L16.75 512.62C16.8667 511.215 17.1792 510.069 17.6875 509.182C18.1958 508.295 18.8 507.852 19.5 507.852C20.2333 507.852 20.8333 508.332 21.3 509.293C21.7667 510.254 22 511.455 22 512.897C22 514.006 21.8583 514.921 21.575 515.641C21.2917 516.362 20.9333 516.723 20.5 516.723C20.0833 516.723 19.7292 516.408 19.4375 515.78C19.1458 515.152 19 514.376 19 513.451C19 513.267 19.0042 513.1 19.0125 512.952C19.0208 512.805 19.0333 512.638 19.05 512.453C18.95 512.527 18.875 512.638 18.825 512.786C18.775 512.934 18.7333 513.156 18.7 513.451L18.275 518.94H23V523.376H22.2L23.5 526.647L24.8 523.376H24V518.94H29V523.376H27.45L24.825 530.029L27.45 536.683H29V541.118H24V536.683H24.8L23.5 533.356L22.2 536.683H23V541.118H18Z" fill="var(--fill-0, white)"/>
</g>
</g>
</g>
</svg>
