<svg preserveAspectRatio="none" width="100%" height="100%" overflow="visible" style="display: block;" viewBox="0 0 42 42" fill="none" xmlns="http://www.w3.org/2000/svg">
<g id="Group 8">
<circle id="Ellipse 2" cx="21" cy="21" r="21" fill="var(--fill-0, white)"/>
<circle id="Ellipse 3" cx="21" cy="21" r="18" fill="var(--fill-0, #1F7BDE)"/>
<g id="function">
<mask id="mask0_89_9" style="mask-type:alpha" maskUnits="userSpaceOnUse" x="8" y="8" width="24" height="24">
<rect id="Bounding box" x="8" y="8" width="24" height="24" fill="var(--fill-0, #D9D9D9)"/>
</mask>
<g mask="url(#mask0_89_9)">
<path id="function_2" d="M18 385.243V380.808H19.55L22.175 374.154L19.55 367.501H17.9L16.3 386.574C16.1667 388.237 15.8583 389.54 15.375 390.483C14.8917 391.425 14.275 391.896 13.525 391.896C12.775 391.896 12.1667 391.453 11.7 390.566C11.2333 389.679 11 388.496 11 387.017C11 385.835 11.1417 384.883 11.425 384.162C11.7083 383.441 12.0667 383.081 12.5 383.081C12.9167 383.081 13.2708 383.395 13.5625 384.023C13.8542 384.652 14 385.409 14 386.297C14 386.481 13.9958 386.648 13.9875 386.796C13.9792 386.943 13.9667 387.11 13.95 387.295C14.0333 387.258 14.1042 387.156 14.1625 386.99C14.2208 386.823 14.2667 386.592 14.3 386.297L15.85 367.501H13V363.065H16.225L16.75 356.745C16.8667 355.34 17.1792 354.194 17.6875 353.307C18.1958 352.42 18.8 351.977 19.5 351.977C20.2333 351.977 20.8333 352.457 21.3 353.418C21.7667 354.379 22 355.58 22 357.022C22 358.131 21.8583 359.046 21.575 359.766C21.2917 360.487 20.9333 360.848 20.5 360.848C20.0833 360.848 19.7292 360.533 19.4375 359.905C19.1458 359.277 19 358.501 19 357.576C19 357.392 19.0042 357.225 19.0125 357.077C19.0208 356.93 19.0333 356.763 19.05 356.578C18.95 356.652 18.875 356.763 18.825 356.911C18.775 357.059 18.7333 357.281 18.7 357.576L18.275 363.065H23V367.501H22.2L23.5 370.772L24.8 367.501H24V363.065H29V367.501H27.45L24.825 374.154L27.45 380.808H29V385.243H24V380.808H24.8L23.5 377.481L22.2 380.808H23V385.243H18Z" fill="var(--fill-0, white)"/>
</g>
</g>
</g>
</svg>
