<svg preserveAspectRatio="none" width="100%" height="100%" overflow="visible" style="display: block;" viewBox="0 0 42 42" fill="none" xmlns="http://www.w3.org/2000/svg">
<g id="Group 9">
<circle id="Ellipse 2" cx="21" cy="21" r="21" fill="var(--fill-0, white)"/>
<circle id="Ellipse 3" cx="21" cy="21" r="18" fill="var(--fill-0, #C6E6FF)"/>
<g id="function">
<mask id="mask0_89_104" style="mask-type:alpha" maskUnits="userSpaceOnUse" x="8" y="8" width="24" height="24">
<rect id="Bounding box" x="8" y="8" width="24" height="24" fill="var(--fill-0, #D9D9D9)"/>
</mask>
<g mask="url(#mask0_89_104)">
<path id="function_2" d="M18 409.599V405.163H19.55L22.175 398.51L19.55 391.856H17.9L16.3 410.929C16.1667 412.593 15.8583 413.896 15.375 414.838C14.8917 415.781 14.275 416.252 13.525 416.252C12.775 416.252 12.1667 415.808 11.7 414.921C11.2333 414.034 11 412.851 11 411.373C11 410.19 11.1417 409.238 11.425 408.517C11.7083 407.797 12.0667 407.436 12.5 407.436C12.9167 407.436 13.2708 407.75 13.5625 408.379C13.8542 409.007 14 409.765 14 410.652C14 410.837 13.9958 411.003 13.9875 411.151C13.9792 411.299 13.9667 411.465 13.95 411.65C14.0333 411.613 14.1042 411.511 14.1625 411.345C14.2208 411.179 14.2667 410.948 14.3 410.652L15.85 391.856H13V387.421H16.225L16.75 381.1C16.8667 379.696 17.1792 378.55 17.6875 377.663C18.1958 376.776 18.8 376.332 19.5 376.332C20.2333 376.332 20.8333 376.813 21.3 377.774C21.7667 378.735 22 379.936 22 381.377C22 382.486 21.8583 383.401 21.575 384.122C21.2917 384.843 20.9333 385.203 20.5 385.203C20.0833 385.203 19.7292 384.889 19.4375 384.261C19.1458 383.632 19 382.856 19 381.932C19 381.747 19.0042 381.581 19.0125 381.433C19.0208 381.285 19.0333 381.119 19.05 380.934C18.95 381.008 18.875 381.119 18.825 381.267C18.775 381.414 18.7333 381.636 18.7 381.932L18.275 387.421H23V391.856H22.2L23.5 395.128L24.8 391.856H24V387.421H29V391.856H27.45L24.825 398.51L27.45 405.163H29V409.599H24V405.163H24.8L23.5 401.836L22.2 405.163H23V409.599H18Z" fill="var(--fill-0, #81C7FD)"/>
</g>
</g>
</g>
</svg>
