<svg preserveAspectRatio="none" width="100%" height="100%" overflow="visible" style="display: block;" viewBox="0 0 26.2823 25.0947" fill="none" xmlns="http://www.w3.org/2000/svg">
<path id="Star 2" d="M12.1901 0.690981C12.4894 -0.230329 13.7928 -0.230326 14.0922 0.690984L16.5089 8.12868C16.6427 8.5407 17.0267 8.81966 17.4599 8.81966H25.2804C26.2491 8.81966 26.6519 10.0593 25.8681 10.6287L19.5413 15.2254C19.1908 15.4801 19.0441 15.9314 19.178 16.3435L21.5946 23.7812C21.894 24.7025 20.8395 25.4686 20.0558 24.8992L13.7289 20.3024C13.3784 20.0478 12.9038 20.0478 12.5534 20.3024L6.22647 24.8992C5.44276 25.4686 4.38828 24.7025 4.68763 23.7812L7.10429 16.3435C7.23816 15.9314 7.0915 15.4801 6.74101 15.2254L0.414131 10.6287C-0.369583 10.0593 0.0331955 8.81966 1.00192 8.81966H8.82237C9.2556 8.81966 9.63956 8.5407 9.77343 8.12868L12.1901 0.690981Z" fill="var(--fill-0, #FFB444)"/>
</svg>
